M48
; DRILL file {KiCad (6.0.1)} date Sat 26 Feb 2022 16:03:31 CET
; FORMAT={-:-/ absolute / inch / decimal}
; #@! TF.CreationDate,2022-02-26T16:03:31+01:00
; #@! TF.GenerationSoftware,Kicad,Pcbnew,(6.0.1)
; #@! TF.FileFunction,Plated,1,2,PTH
FMAT,2
INCH
; #@! TA.AperFunction,Plated,PTH,ViaDrill
T1C0.0157
; #@! TA.AperFunction,Plated,PTH,ComponentDrill
T2C0.0300
; #@! TA.AperFunction,Plated,PTH,ComponentDrill
T3C0.0315
; #@! TA.AperFunction,Plated,PTH,ComponentDrill
T4C0.0394
%
G90
G05
T1
X1.9427Y-9.565
X1.945Y-2.2173
X2.5257Y-5.7117
X2.5257Y-6.7317
X2.5326Y-4.3816
X2.5326Y-7.0292
X2.5357Y-3.0617
X2.5357Y-4.0717
X2.54Y-2.75
X2.5424Y-8.3678
X2.5457Y-5.4017
X2.5457Y-8.0517
X2.5457Y-9.3817
X2.635Y-1.5227
X2.6473Y-10.265
X3.6909Y-2.5492
X4.8327Y-2.1654
X4.8987Y-2.1683
X5.4823Y-1.5748
X5.5807Y-1.5748
X5.6791Y-1.5846
X6.1516Y-10.1969
X6.2008Y-5.6791
X6.25Y-5.8858
X6.25Y-9.7638
X6.2992Y-9.7638
X6.3Y-5.6882
X6.4764Y-5.9843
X6.7421Y-5.7874
X7.4857Y-9.8617
X8.4643Y-9.8583
X9.9803Y-10.2657
X9.9827Y-1.525
X10.0737Y-5.3999
X10.0737Y-6.7346
X10.0743Y-2.7483
X10.0743Y-3.0583
X10.0743Y-4.0783
X10.0743Y-4.3783
X10.0743Y-5.7083
X10.0743Y-7.043
X10.0743Y-9.3783
X10.0777Y-8.0495
X10.0782Y-8.3579
X10.6693Y-9.5571
X10.6873Y-2.215
T2
X3.3425Y-1.7291
X3.3425Y-2.1291
X3.4425Y-1.7291
X3.4425Y-2.1291
X3.5425Y-1.7291
X3.5425Y-2.1291
X3.6425Y-1.7291
X3.6425Y-2.1291
X3.7425Y-1.7291
X3.7425Y-2.1291
X3.8425Y-1.7291
X3.8425Y-2.1291
X4.555Y-9.97
X4.655Y-9.97
X4.755Y-9.97
X5.2812Y-1.9984
X5.2812Y-2.8984
X5.3812Y-1.9984
X5.3812Y-2.8984
X5.4812Y-1.9984
X5.4812Y-2.8984
X5.5812Y-1.9984
X5.5812Y-2.8984
X5.6812Y-1.9984
X5.6812Y-2.8984
X5.7812Y-1.9984
X5.7812Y-2.8984
X5.8812Y-1.9984
X5.8812Y-2.8984
X5.9812Y-1.9984
X5.9812Y-2.8984
X6.0812Y-1.9984
X6.0812Y-2.8984
X6.1015Y-10.4252
X6.1812Y-1.9984
X6.1812Y-2.8984
X6.2015Y-10.4252
X6.2812Y-1.9984
X6.2812Y-2.8984
X6.3015Y-10.4252
X6.3812Y-1.9984
X6.3812Y-2.8984
X6.4015Y-10.4252
X6.4812Y-1.9984
X6.4812Y-2.8984
X6.5015Y-10.4252
X6.5812Y-1.9984
X6.5812Y-2.8984
X6.6812Y-1.9984
X6.6812Y-2.8984
X6.7812Y-1.9984
X6.7812Y-2.8984
X6.8812Y-1.9984
X6.8812Y-2.8984
X6.9812Y-1.9984
X6.9812Y-2.8984
X7.0812Y-1.9984
X7.0812Y-2.8984
X7.1812Y-1.9984
X7.1812Y-2.8984
T3
X4.5669Y-1.6929
X4.5669Y-2.0929
X4.7244Y-1.6929
X4.7244Y-2.0929
T4
X3.03Y-9.8798
X3.03Y-9.9798
T0
M30
